<?xml version="1.0" standalone="no"?>
<!DOCTYPE svg PUBLIC "-//W3C//DTD SVG 20010904//EN"
 "http://www.w3.org/TR/2001/REC-SVG-20010904/DTD/svg10.dtd">
<svg version="1.0" xmlns="http://www.w3.org/2000/svg"
 width="200.000000pt" height="129.000000pt" viewBox="0 0 200.000000 129.000000"
 preserveAspectRatio="xMidYMid meet">

<g transform="translate(0.000000,129.000000) scale(0.100000,-0.100000)"
fill="#000000" stroke="none">
<path d="M293 1175 c-43 -30 -173 -195 -173 -220 0 -22 23 -55 39 -55 12 0 37
24 62 60 l24 35 5 -440 5 -440 28 -9 c17 -6 37 -6 55 0 l27 9 3 525 c2 485 1
526 -15 538 -22 16 -34 15 -60 -3z"/>
<path d="M820 1180 c-93 -14 -132 -31 -180 -79 -75 -75 -82 -104 -87 -396 -8
-371 8 -458 95 -537 54 -49 128 -72 227 -72 146 0 247 56 296 167 24 51 24 57
24 377 0 321 0 326 -24 378 -54 119 -197 185 -351 162z m156 -131 c26 -12 53
-36 66 -57 22 -36 23 -44 26 -342 3 -301 2 -306 -20 -350 -32 -62 -88 -93
-173 -92 -81 0 -139 30 -169 87 -20 38 -21 55 -21 345 0 304 0 305 24 347 46
80 171 109 267 62z"/>
<path d="M849 686 c-49 -24 -28 -106 27 -106 31 0 54 26 54 59 0 44 -41 67
-81 47z"/>
<path d="M1363 1174 c-58 -29 -54 -44 52 -199 l97 -143 -90 -134 c-120 -179
-118 -175 -95 -200 22 -25 58 -39 77 -32 8 3 52 63 97 132 45 70 85 131 89
135 4 5 44 -47 89 -116 45 -68 90 -132 101 -142 17 -16 21 -16 54 0 62 30 59
43 -54 208 l-102 149 29 42 c119 168 163 236 163 253 0 27 -32 53 -66 56 -27
2 -36 -8 -110 -121 -45 -68 -86 -128 -91 -133 -7 -7 -37 32 -88 111 -77 120
-100 150 -113 150 -4 0 -21 -8 -39 -16z"/>
</g>
</svg>
